<svg width="168" height="178" viewBox="0 0 168 178" fill="none" xmlns="http://www.w3.org/2000/svg">
<path d="M161.554 31.2L167.354 0H130.354L161.554 31.2Z" fill="url(#paint0_linear_12857_14688)"/>
<path d="M34.4537 92.1C4.25369 92.1 -8.1463 113.4 5.5537 135.2L47.5537 177.2H56.4537C78.4537 175 93.0537 149.1 79.0537 126.9L44.2537 92.1H34.4537Z" fill="url(#paint1_linear_12857_14688)"/>
<path d="M81.6537 119.7V92.1H54.0537L81.6537 119.7Z" fill="url(#paint2_linear_12857_14688)"/>
<path d="M2.05371 141.6V177.3H37.6537L2.05371 141.6Z" fill="url(#paint3_linear_12857_14688)"/>
<path d="M34.4537 0C4.25369 0 -8.1463 21.3 5.5537 43.1L47.5537 85.1H56.4537C78.4537 82.9 93.0537 57 79.0537 34.8L44.2537 0H34.4537Z" fill="url(#paint4_linear_12857_14688)"/>
<path d="M81.6537 27.6V0H54.0537L81.6537 27.6Z" fill="url(#paint5_linear_12857_14688)"/>
<path d="M2.05371 49.5V85.1H37.6537L2.05371 49.5Z" fill="url(#paint6_linear_12857_14688)"/>
<path d="M88.6537 136.5V177.3H111.154H129.354L88.6537 136.5Z" fill="url(#paint7_linear_12857_14688)"/>
<path d="M139.154 85.1H151.354L159.954 39.5L120.454 0H88.6537L96.4537 42.4L139.154 85.1Z" fill="url(#paint8_linear_12857_14688)"/>
<path d="M98.7537 54.6L99.0537 56.5L104.454 85.1H127.854H129.254L98.7537 54.6Z" fill="url(#paint9_linear_12857_14688)"/>
<path d="M167.354 113.3V92.1L157.154 103.1L167.354 113.3Z" fill="url(#paint10_linear_12857_14688)"/>
<path d="M152.454 108.3L151.754 109L128.054 134.7L88.6537 92.1V120.9V126.6L139.254 177.3H167.354V133V124.6V123.2L152.454 108.3Z" fill="url(#paint11_linear_12857_14688)"/>
<defs>
<linearGradient id="paint0_linear_12857_14688" x1="149.654" y1="124" x2="149.154" y2="42.5" gradientUnits="userSpaceOnUse">
<stop stop-color="#E01B41"/>
<stop offset="1" stop-color="#EF7C28"/>
</linearGradient>
<linearGradient id="paint1_linear_12857_14688" x1="42.2537" y1="124.7" x2="41.7537" y2="43.2" gradientUnits="userSpaceOnUse">
<stop stop-color="#E01B41"/>
<stop offset="1" stop-color="#EF7C28"/>
</linearGradient>
<linearGradient id="paint2_linear_12857_14688" x1="68.0537" y1="124.6" x2="67.5537" y2="43" gradientUnits="userSpaceOnUse">
<stop stop-color="#E01B41"/>
<stop offset="1" stop-color="#EF7C28"/>
</linearGradient>
<linearGradient id="paint3_linear_12857_14688" x1="19.4537" y1="124.9" x2="18.9537" y2="43.2999" gradientUnits="userSpaceOnUse">
<stop stop-color="#E01B41"/>
<stop offset="1" stop-color="#EF7C28"/>
</linearGradient>
<linearGradient id="paint4_linear_12857_14688" x1="42.8537" y1="124.7" x2="42.2537" y2="43.2" gradientUnits="userSpaceOnUse">
<stop stop-color="#E01B41"/>
<stop offset="1" stop-color="#EF7C28"/>
</linearGradient>
<linearGradient id="paint5_linear_12857_14688" x1="68.6537" y1="124.5" x2="68.1537" y2="43" gradientUnits="userSpaceOnUse">
<stop stop-color="#E01B41"/>
<stop offset="1" stop-color="#EF7C28"/>
</linearGradient>
<linearGradient id="paint6_linear_12857_14688" x1="20.0537" y1="124.9" x2="19.5537" y2="43.3" gradientUnits="userSpaceOnUse">
<stop stop-color="#E01B41"/>
<stop offset="1" stop-color="#EF7C28"/>
</linearGradient>
<linearGradient id="paint7_linear_12857_14688" x1="108.654" y1="124.3" x2="108.154" y2="42.7" gradientUnits="userSpaceOnUse">
<stop stop-color="#E01B41"/>
<stop offset="1" stop-color="#EF7C28"/>
</linearGradient>
<linearGradient id="paint8_linear_12857_14688" x1="124.954" y1="124.2" x2="124.454" y2="42.6" gradientUnits="userSpaceOnUse">
<stop stop-color="#E01B41"/>
<stop offset="1" stop-color="#EF7C28"/>
</linearGradient>
<linearGradient id="paint9_linear_12857_14688" x1="114.354" y1="124.3" x2="113.854" y2="42.7" gradientUnits="userSpaceOnUse">
<stop stop-color="#E01B41"/>
<stop offset="1" stop-color="#EF7C28"/>
</linearGradient>
<linearGradient id="paint10_linear_12857_14688" x1="162.454" y1="124" x2="161.954" y2="42.4" gradientUnits="userSpaceOnUse">
<stop stop-color="#E01B41"/>
<stop offset="1" stop-color="#EF7C28"/>
</linearGradient>
<linearGradient id="paint11_linear_12857_14688" x1="127.954" y1="124.2" x2="127.454" y2="42.6" gradientUnits="userSpaceOnUse">
<stop stop-color="#E01B41"/>
<stop offset="1" stop-color="#EF7C28"/>
</linearGradient>
</defs>
</svg>
