<svg width="100" height="122" viewBox="0 0 100 122" fill="none" xmlns="http://www.w3.org/2000/svg">
<path d="M27.2874 86.5561C26.6353 86.2597 26.0425 85.9632 26.0425 85.1925C26.0425 84.4218 26.4871 84.0068 27.3467 84.0068C28.2064 84.0068 28.6214 84.659 28.6214 84.659L28.2064 84.985C28.2064 84.985 27.8803 84.5108 27.3171 84.5108C26.7539 84.5108 26.5464 84.8665 26.5464 85.1925C26.5464 85.6372 26.9317 85.8447 27.5542 86.1115C28.236 86.4375 28.6806 86.7043 28.6806 87.4454C28.6806 88.1864 28.0878 88.6607 27.2874 88.6607C26.4871 88.6607 25.835 87.7121 25.835 87.7121L26.2796 87.4454C26.2796 87.4454 26.5464 88.1568 27.2578 88.1568C27.9692 88.1568 28.1174 87.9196 28.1174 87.4454C28.1174 86.9711 27.7321 86.7932 27.2282 86.5561H27.2874Z" fill="#E31A41"/>
<path d="M30.0739 85.6076V86.0523C30.0739 86.0523 30.3703 85.5483 31.0817 85.5483C31.7932 85.5483 32.5342 86.2301 32.5342 87.1194C32.5342 88.0087 31.8821 88.6904 31.0817 88.6904C30.2814 88.6904 30.2221 88.394 30.1332 88.2458V90.1133H29.5996V85.6373H30.1035L30.0739 85.6076ZM30.1332 87.653C30.1332 87.653 30.4296 88.1569 31.0224 88.1569C31.6153 88.1569 32.0007 87.6826 32.0007 87.0898C32.0007 86.4969 31.6153 86.0226 31.0224 86.0226C30.4296 86.0226 30.1332 86.5265 30.1332 86.5265V87.653Z" fill="#E31A41"/>
<path d="M36.2098 87.0896C36.2098 87.9789 35.5576 88.6607 34.6684 88.6607C33.7791 88.6607 33.127 87.9789 33.127 87.0896C33.127 86.2003 33.7791 85.5186 34.6684 85.5186C35.5576 85.5186 36.2098 86.2003 36.2098 87.0896ZM35.6762 87.0896C35.6762 86.4968 35.2909 86.0225 34.6684 86.0225C34.0459 86.0225 33.6605 86.4968 33.6605 87.0896C33.6605 87.6825 34.0459 88.1567 34.6684 88.1567C35.2909 88.1567 35.6762 87.6825 35.6762 87.0896Z" fill="#E31A41"/>
<path d="M38.759 85.6075L38.5515 86.1114C38.5515 86.1114 38.4329 86.0521 38.1958 86.0521C37.7215 86.0521 37.514 86.556 37.514 86.556V88.6014H36.9805V85.6075H37.4844V86.0521C37.4844 86.0521 37.7512 85.5186 38.3144 85.5186C38.8776 85.5186 38.759 85.6075 38.759 85.6075Z" fill="#E31A41"/>
<path d="M39.2334 85.6074H39.8262V84.6885H40.3598V85.6074H41.2787V86.1113H40.3598V87.712C40.3598 88.0084 40.508 88.1567 40.8045 88.1567C41.1009 88.1567 41.1602 88.0381 41.1602 88.0381L41.3677 88.4827C41.1009 88.6309 40.923 88.6606 40.7452 88.6606C40.3302 88.6606 39.8559 88.3938 39.8559 87.712V86.0817H39.263V85.5778L39.2334 85.6074Z" fill="#E31A41"/>
<path d="M42.3757 85.6074L43.2946 87.6231L44.2135 85.6074H44.7767L43.2946 88.7199L41.8125 85.6074H42.4053H42.3757Z" fill="#E31A41"/>
<path d="M48.0078 87.1192C48.0078 87.1785 48.0078 87.2082 48.0078 87.2971H45.6068C45.6364 87.7417 46.0811 88.1567 46.6443 88.1567C47.2075 88.1567 47.5336 87.7121 47.5336 87.7121L47.8893 88.0678C47.8893 88.0678 47.4446 88.6607 46.6443 88.6607C45.8439 88.6607 45.0732 87.9789 45.0732 87.0896C45.0732 86.2003 45.6661 85.5186 46.5554 85.5186C47.4446 85.5186 48.0078 86.141 48.0078 87.1192ZM47.4743 86.8228C47.4743 86.4968 47.1482 86.0225 46.5554 86.0225C45.9625 86.0225 45.6364 86.5264 45.6068 86.8228H47.4743Z" fill="#E31A41"/>
<path d="M50.5569 85.6075L50.3494 86.1114C50.3494 86.1114 50.2308 86.0521 49.9937 86.0521C49.5194 86.0521 49.3119 86.556 49.3119 86.556V88.6014H48.7783V85.6075H49.2822V86.0521C49.2822 86.0521 49.549 85.5186 50.1122 85.5186C50.6754 85.5186 50.5569 85.6075 50.5569 85.6075Z" fill="#E31A41"/>
<path d="M53.7578 87.1192C53.7578 87.1785 53.7578 87.2082 53.7578 87.2971H51.3568C51.3864 87.7417 51.8311 88.1567 52.3943 88.1567C52.9575 88.1567 53.2836 87.7121 53.2836 87.7121L53.6393 88.0678C53.6393 88.0678 53.1946 88.6607 52.3943 88.6607C51.5939 88.6607 50.8232 87.9789 50.8232 87.0896C50.8232 86.2003 51.4161 85.5186 52.3054 85.5186C53.1946 85.5186 53.7578 86.141 53.7578 87.1192ZM53.2243 86.8228C53.2243 86.4968 52.8982 86.0225 52.3054 86.0225C51.7125 86.0225 51.3864 86.5264 51.3568 86.8228H53.2243Z" fill="#E31A41"/>
<path d="M54.8547 84.2734C55.0622 84.2734 55.2104 84.4513 55.2104 84.6292C55.2104 84.807 55.0326 84.9849 54.8547 84.9849C54.6769 84.9849 54.499 84.807 54.499 84.6292C54.499 84.4513 54.6769 84.2734 54.8547 84.2734ZM54.588 85.6073H55.1215V88.6012H54.588V85.6073Z" fill="#E31A41"/>
<path d="M58.6788 86.6745V88.6012H58.1452V86.7634C58.1452 86.2595 57.8192 86.0223 57.4338 86.0223C57.0485 86.0223 56.6927 86.5263 56.6927 86.5263V88.5716H56.1592V85.5777H56.6631V85.9927C56.6631 85.9927 56.9299 85.4888 57.582 85.4888C58.2341 85.4888 58.7084 85.9038 58.7084 86.6448L58.6788 86.6745Z" fill="#E31A41"/>
<path d="M59.9534 84.2734C60.1609 84.2734 60.3091 84.4513 60.3091 84.6292C60.3091 84.807 60.1312 84.9849 59.9534 84.9849C59.7755 84.9849 59.5977 84.807 59.5977 84.6292C59.5977 84.4513 59.7755 84.2734 59.9534 84.2734ZM59.6866 85.6073H60.2202V88.6012H59.6866V85.6073Z" fill="#E31A41"/>
<path d="M63.4508 88.216C63.3619 88.3642 63.0358 88.6607 62.5023 88.6607C61.7019 88.6607 61.0498 87.9789 61.0498 87.0896C61.0498 86.2003 61.7019 85.5186 62.5023 85.5186C63.3026 85.5186 63.5101 86.0225 63.5101 86.0225V85.5778H64.0141V88.5717C64.0141 89.6092 63.3026 90.1131 62.443 90.1131C61.5834 90.1131 61.1387 89.5499 61.1387 89.5499L61.4648 89.1349C61.4648 89.1349 61.8205 89.6092 62.443 89.6092C63.0655 89.6092 63.4805 89.2535 63.4805 88.6014V88.1864L63.4508 88.216ZM63.4508 86.5264C63.4508 86.5264 63.1544 86.0225 62.5616 86.0225C61.9687 86.0225 61.5834 86.4968 61.5834 87.0896C61.5834 87.6825 61.9687 88.1567 62.5616 88.1567C63.1544 88.1567 63.4508 87.6528 63.4508 87.6528V86.5264Z" fill="#E31A41"/>
<path d="M64.933 87.5342V85.6074H65.4665V87.4453C65.4665 87.9492 65.7926 88.1863 66.1779 88.1863C66.5633 88.1863 66.919 87.6824 66.919 87.6824V85.6074H67.4526V88.6013H66.9486V88.1567C66.9486 88.1567 66.6819 88.6902 66.0297 88.6902C65.3776 88.6902 64.9033 88.2752 64.9033 87.5342H64.933Z" fill="#E31A41"/>
<path d="M71.0098 86.6745V88.6012H70.4763V86.7634C70.4763 86.2595 70.1502 86.0223 69.7649 86.0223C69.3795 86.0223 69.0238 86.5263 69.0238 86.5263V88.5716H68.4902V85.5777H68.9942V85.9927C68.9942 85.9927 69.2609 85.4888 69.9131 85.4888C70.5652 85.4888 71.0395 85.9038 71.0395 86.6448L71.0098 86.6745Z" fill="#E31A41"/>
<path d="M74.1823 88.216C74.0934 88.3642 73.7673 88.6607 73.2337 88.6607C72.4334 88.6607 71.7812 87.9789 71.7812 87.0896C71.7812 86.2003 72.4334 85.5186 73.2337 85.5186C74.0341 85.5186 74.2416 86.0225 74.2416 86.0225V85.5778H74.7455V88.5717C74.7455 89.6092 74.0341 90.1131 73.1744 90.1131C72.3148 90.1131 71.8702 89.5499 71.8702 89.5499L72.1962 89.1349C72.1962 89.1349 72.5519 89.6092 73.1744 89.6092C73.7969 89.6092 74.2119 89.2535 74.2119 88.6014V88.1864L74.1823 88.216ZM74.1823 86.5264C74.1823 86.5264 73.8859 86.0225 73.293 86.0225C72.7002 86.0225 72.3148 86.4968 72.3148 87.0896C72.3148 87.6825 72.7002 88.1567 73.293 88.1567C73.8859 88.1567 74.1823 87.6528 74.1823 87.6528V86.5264Z" fill="#E31A41"/>
<path d="M27.3764 94.5003C26.7539 94.2928 26.0128 93.9371 26.0128 93.1367C26.0128 92.3364 26.5464 91.9214 27.4357 91.9214C28.3249 91.9214 28.8289 92.6032 28.8289 92.6032L28.3249 93.1071C28.3249 93.1071 27.9692 92.6328 27.4357 92.6328C26.9021 92.6328 26.7835 92.8699 26.7835 93.1367C26.7835 93.4035 27.1096 93.6407 27.7024 93.8481C28.3546 94.0853 28.9178 94.3817 28.9178 95.1821C28.9178 95.9824 28.236 96.3974 27.406 96.3974C26.576 96.3974 25.835 95.5081 25.835 95.5081L26.3982 95.0338C26.3982 95.0338 26.7539 95.686 27.4357 95.686C28.1174 95.686 28.1767 95.5378 28.1767 95.1821C28.1767 94.8263 27.9099 94.6781 27.3764 94.5003Z" fill="#E31A41"/>
<path d="M32.5044 94.8266C32.5044 95.6862 31.8226 96.368 30.9334 96.368C30.0441 96.368 29.3623 95.6862 29.3623 94.8266C29.3623 93.9669 30.0441 93.2852 30.9334 93.2852C31.8226 93.2852 32.5044 93.9669 32.5044 94.8266ZM31.7337 94.8266C31.7337 94.3819 31.4373 93.9966 30.9334 93.9966C30.4294 93.9966 30.133 94.3819 30.133 94.8266C30.133 95.2712 30.4294 95.6566 30.9334 95.6566C31.4373 95.6566 31.7337 95.2712 31.7337 94.8266Z" fill="#E31A41"/>
<path d="M35.4689 93.374L34.0165 95.5972H35.4097V96.279H32.7715L34.224 94.0558H32.8901V93.374H35.4986H35.4689Z" fill="#E31A41"/>
<path d="M36.3874 91.9512C36.6541 91.9512 36.8616 92.1587 36.8616 92.4255C36.8616 92.6922 36.6541 92.8997 36.3874 92.8997C36.1206 92.8997 35.9131 92.6922 35.9131 92.4255C35.9131 92.1587 36.1206 91.9512 36.3874 91.9512ZM36.0317 93.374H36.7727V96.3086H36.0317V93.374Z" fill="#E31A41"/>
<path d="M40.093 94.3818V96.2789H39.4112V95.9232C39.4112 95.9232 39.1148 96.3678 38.4626 96.3678C37.8105 96.3678 37.3955 96.0121 37.3955 95.3896C37.3955 94.7671 37.8994 94.4114 38.5516 94.4114C39.2037 94.4114 39.3519 94.6189 39.3519 94.6189V94.4411C39.3519 94.0557 38.9962 93.9372 38.7294 93.9372C38.3144 93.9372 37.8401 94.1446 37.8401 94.1446L37.603 93.5222C37.603 93.5222 38.1366 93.2554 38.7591 93.2554C39.3816 93.2554 40.093 93.6704 40.093 94.3521V94.3818ZM39.3519 95.4193V95.1229C39.3519 95.1229 39.0851 94.9746 38.6998 94.9746C38.3144 94.9746 38.1662 95.0636 38.1662 95.3896C38.1662 95.7157 38.4626 95.775 38.6998 95.775C39.1444 95.775 39.3816 95.4489 39.3816 95.4489L39.3519 95.4193Z" fill="#E31A41"/>
<path d="M40.8936 91.625H41.6346V96.2789H40.8936V91.625Z" fill="#E31A41"/>
<path d="M46.8513 94.4114V96.2789H46.1102V94.5893C46.1102 94.1743 45.962 93.9668 45.5767 93.9668C45.1913 93.9668 45.0135 94.3521 45.0135 94.3521V96.2789H44.2724V94.5893C44.2724 94.1743 44.1242 93.9668 43.7388 93.9668C43.3535 93.9668 43.1756 94.3521 43.1756 94.3521V96.2789H42.4346V93.3443H43.1163V93.7593C43.1163 93.7593 43.3831 93.2554 43.976 93.2554C44.5688 93.2554 44.8949 93.7593 44.8949 93.7593C44.8949 93.7593 45.132 93.2554 45.8138 93.2554C46.4956 93.2554 46.8513 93.6704 46.8513 94.3818V94.4114Z" fill="#E31A41"/>
<path d="M48.0368 91.9512C48.3036 91.9512 48.5111 92.1587 48.5111 92.4255C48.5111 92.6922 48.3036 92.8997 48.0368 92.8997C47.77 92.8997 47.5625 92.6922 47.5625 92.4255C47.5625 92.1587 47.77 91.9512 48.0368 91.9512ZM47.6811 93.374H48.4221V96.3086H47.6811V93.374Z" fill="#E31A41"/>
<path d="M51.8612 94.4116V96.3087H51.1201V94.5894C51.1201 94.1744 50.8533 93.9966 50.5273 93.9966C50.2012 93.9966 49.9344 94.3819 49.9344 94.3819V96.3087H49.1934V93.3741H49.8751V93.7891C49.8751 93.7891 50.1419 93.2852 50.7644 93.2852C51.3869 93.2852 51.8315 93.7002 51.8315 94.3819L51.8612 94.4116Z" fill="#E31A41"/>
<path d="M53.0173 91.9512C53.284 91.9512 53.4915 92.1587 53.4915 92.4255C53.4915 92.6922 53.284 92.8997 53.0173 92.8997C52.7505 92.8997 52.543 92.6922 52.543 92.4255C52.543 92.1587 52.7505 91.9512 53.0173 91.9512ZM52.6615 93.374H53.4026V96.3086H52.6615V93.374Z" fill="#E31A41"/>
<path d="M54.4098 95.3009C54.4098 95.3009 54.7952 95.7158 55.2991 95.7158C55.803 95.7158 55.8623 95.6269 55.8623 95.4491C55.8623 95.2712 55.7141 95.2119 55.2695 95.123C54.6766 95.0044 54.1727 94.7673 54.1727 94.2041C54.1727 93.6409 54.6173 93.2852 55.4177 93.2852C56.218 93.2852 56.5144 93.6409 56.5144 93.6409L56.1587 94.1744C56.1587 94.1744 55.8327 93.9077 55.4177 93.9077C55.0027 93.9077 54.8841 93.9966 54.8841 94.1744C54.8841 94.3523 55.0916 94.3819 55.5659 94.5005C56.1587 94.6191 56.5441 94.8266 56.5441 95.4194C56.5441 96.0123 56.0105 96.3087 55.2695 96.3087C54.5284 96.3087 53.9355 95.7751 53.9355 95.7751L54.3505 95.2416L54.4098 95.3009Z" fill="#E31A41"/>
<path d="M56.93 93.3738H57.4932V92.5142H58.2343V93.3738H59.1236V94.0259H58.2343V95.2116C58.2343 95.5673 58.4122 95.6859 58.6197 95.6859C58.8271 95.6859 58.9161 95.5673 58.9161 95.5673L59.1829 96.1602C59.1829 96.1602 58.9161 96.338 58.4714 96.338C58.0268 96.338 57.4636 95.9231 57.4636 95.3006V93.9963H56.9004V93.3442L56.93 93.3738Z" fill="#E31A41"/>
<path d="M62.4135 94.8266C62.4135 94.8859 62.4135 95.0044 62.4135 95.0933H60.2199C60.2792 95.3601 60.5756 95.6862 61.0499 95.6862C61.5242 95.6862 61.8503 95.3898 61.8503 95.3898L62.206 95.953C62.206 95.953 61.7317 96.368 61.0203 96.368C60.3088 96.368 59.4492 95.6862 59.4492 94.8266C59.4492 93.9669 60.0717 93.2852 60.9313 93.2852C61.791 93.2852 62.4135 93.9077 62.4135 94.7969V94.8266ZM61.6724 94.5598C61.6724 94.293 61.4353 93.9669 60.9313 93.9669C60.4274 93.9669 60.2496 94.293 60.2199 94.5598H61.6724Z" fill="#E31A41"/>
<path d="M64.9922 93.4036L64.7255 94.0557C64.7255 94.0557 64.5773 93.9964 64.3698 93.9964C63.9251 93.9964 63.7176 94.3818 63.7176 94.3818V96.2789H62.9766V93.3443H63.688V93.7593C63.688 93.7593 63.9548 93.2554 64.4883 93.2554C65.0219 93.2554 64.9922 93.3443 64.9922 93.3443V93.4036Z" fill="#E31A41"/>
<path d="M65.8229 91.9512C66.0897 91.9512 66.2972 92.1587 66.2972 92.4255C66.2972 92.6922 66.0897 92.8997 65.8229 92.8997C65.5561 92.8997 65.3486 92.6922 65.3486 92.4255C65.3486 92.1587 65.5561 91.9512 65.8229 91.9512ZM65.4672 93.374H66.2083V96.3086H65.4672V93.374Z" fill="#E31A41"/>
<path d="M66.9785 95.2711V93.374H67.7196V95.0636C67.7196 95.5083 67.9271 95.6861 68.3124 95.6861C68.6978 95.6861 68.9053 95.3304 68.9053 95.3304V93.374H69.6463V96.3086H68.9646V95.8936C68.9646 95.8936 68.6978 96.3976 68.0753 96.3976C67.4528 96.3976 67.0082 95.9826 67.0082 95.3008L66.9785 95.2711Z" fill="#E31A41"/>
<path d="M74.8044 94.4114V96.2789H74.0634V94.5893C74.0634 94.1743 73.9152 93.9668 73.5298 93.9668C73.1444 93.9668 72.9666 94.3521 72.9666 94.3521V96.2789H72.2255V94.5893C72.2255 94.1743 72.0773 93.9668 71.692 93.9668C71.3066 93.9668 71.1288 94.3521 71.1288 94.3521V96.2789H70.3877V93.3443H71.0695V93.7593C71.0695 93.7593 71.3363 93.2554 71.9291 93.2554C72.522 93.2554 72.848 93.7593 72.848 93.7593C72.848 93.7593 73.0852 93.2554 73.7669 93.2554C74.4487 93.2554 74.8044 93.6704 74.8044 94.3818V94.4114Z" fill="#E31A41"/>
<path d="M73.0844 34.4447L74.8037 25.1963H63.8359L73.0844 34.4447Z" fill="url(#paint0_linear_12691_3671)"/>
<path d="M35.4092 52.4971C26.4572 52.4971 22.7815 58.8109 26.8425 65.273L39.2924 77.7228H41.9306C48.4519 77.0707 52.7797 69.3933 48.6298 62.8127L38.3142 52.4971H35.4092Z" fill="url(#paint1_linear_12691_3671)"/>
<path d="M49.4001 60.6784V52.4971H41.2188L49.4001 60.6784Z" fill="url(#paint2_linear_12691_3671)"/>
<path d="M25.8047 67.1699V77.7523H36.3574L25.8047 67.1699Z" fill="url(#paint3_linear_12691_3671)"/>
<path d="M35.4092 25.1963C26.4572 25.1963 22.7815 31.5101 26.8425 37.9722L39.2924 50.422H41.9306C48.4519 49.7699 52.7797 42.0925 48.6298 35.5119L38.3142 25.1963H35.4092Z" fill="url(#paint4_linear_12691_3671)"/>
<path d="M49.4001 33.3776V25.1963H41.2188L49.4001 33.3776Z" fill="url(#paint5_linear_12691_3671)"/>
<path d="M25.8047 39.8691V50.4219H36.3574L25.8047 39.8691Z" fill="url(#paint6_linear_12691_3671)"/>
<path d="M51.4756 65.6582V77.7523H58.1451H63.5401L51.4756 65.6582Z" fill="url(#paint7_linear_12691_3671)"/>
<path d="M66.445 50.422H70.0614L72.6107 36.9051L60.9019 25.1963H51.4756L53.7877 37.7647L66.445 50.422Z" fill="url(#paint8_linear_12691_3671)"/>
<path d="M54.4697 41.3809L54.5587 41.9441L56.1594 50.4218H63.0957H63.5107L54.4697 41.3809Z" fill="url(#paint9_linear_12691_3671)"/>
<path d="M74.8038 58.7813V52.4971L71.7803 55.7577L74.8038 58.7813Z" fill="url(#paint10_linear_12691_3671)"/>
<path d="M70.3875 57.2992L70.18 57.5067L63.1547 65.1248L51.4756 52.4971V61.0341V62.7237L66.4747 77.7525H74.8042V64.6208V62.1309V61.7159L70.3875 57.2992Z" fill="url(#paint11_linear_12691_3671)"/>
<defs>
<linearGradient id="paint0_linear_12691_3671" x1="69.3198" y1="61.8047" x2="69.3198" y2="37.409" gradientUnits="userSpaceOnUse">
<stop stop-color="#E31A41"/>
<stop offset="1" stop-color="#EF7C28"/>
</linearGradient>
<linearGradient id="paint1_linear_12691_3671" x1="37.7213" y1="61.8048" x2="37.7213" y2="37.409" gradientUnits="userSpaceOnUse">
<stop stop-color="#E31A41"/>
<stop offset="1" stop-color="#EF7C28"/>
</linearGradient>
<linearGradient id="paint2_linear_12691_3671" x1="45.3094" y1="61.8048" x2="45.3094" y2="37.4091" gradientUnits="userSpaceOnUse">
<stop stop-color="#E31A41"/>
<stop offset="1" stop-color="#EF7C28"/>
</linearGradient>
<linearGradient id="paint3_linear_12691_3671" x1="31.081" y1="61.8046" x2="31.081" y2="37.4089" gradientUnits="userSpaceOnUse">
<stop stop-color="#E31A41"/>
<stop offset="1" stop-color="#EF7C28"/>
</linearGradient>
<linearGradient id="paint4_linear_12691_3671" x1="37.7213" y1="61.8048" x2="37.7213" y2="37.409" gradientUnits="userSpaceOnUse">
<stop stop-color="#E31A41"/>
<stop offset="1" stop-color="#EF7C28"/>
</linearGradient>
<linearGradient id="paint5_linear_12691_3671" x1="45.3094" y1="61.8048" x2="45.3094" y2="37.409" gradientUnits="userSpaceOnUse">
<stop stop-color="#E31A41"/>
<stop offset="1" stop-color="#EF7C28"/>
</linearGradient>
<linearGradient id="paint6_linear_12691_3671" x1="31.081" y1="61.8046" x2="31.081" y2="37.4088" gradientUnits="userSpaceOnUse">
<stop stop-color="#E31A41"/>
<stop offset="1" stop-color="#EF7C28"/>
</linearGradient>
<linearGradient id="paint7_linear_12691_3671" x1="57.493" y1="61.8047" x2="57.493" y2="37.4089" gradientUnits="userSpaceOnUse">
<stop stop-color="#E31A41"/>
<stop offset="1" stop-color="#EF7C28"/>
</linearGradient>
<linearGradient id="paint8_linear_12691_3671" x1="62.0283" y1="61.8048" x2="62.0283" y2="37.409" gradientUnits="userSpaceOnUse">
<stop stop-color="#E31A41"/>
<stop offset="1" stop-color="#EF7C28"/>
</linearGradient>
<linearGradient id="paint9_linear_12691_3671" x1="59.005" y1="61.8045" x2="59.005" y2="37.4088" gradientUnits="userSpaceOnUse">
<stop stop-color="#E31A41"/>
<stop offset="1" stop-color="#EF7C28"/>
</linearGradient>
<linearGradient id="paint10_linear_12691_3671" x1="73.292" y1="61.8048" x2="73.292" y2="37.4091" gradientUnits="userSpaceOnUse">
<stop stop-color="#E31A41"/>
<stop offset="1" stop-color="#EF7C28"/>
</linearGradient>
<linearGradient id="paint11_linear_12691_3671" x1="63.1547" y1="61.8048" x2="63.1547" y2="37.409" gradientUnits="userSpaceOnUse">
<stop stop-color="#E31A41"/>
<stop offset="1" stop-color="#EF7C28"/>
</linearGradient>
</defs>
</svg>
