<svg width="50" height="72" viewBox="0 0 50 72" fill="none" xmlns="http://www.w3.org/2000/svg">
<path d="M2.09088 61.3599C1.43875 61.0635 0.845894 60.7671 0.845894 59.9964C0.845894 59.2257 1.29053 58.8107 2.15017 58.8107C3.0098 58.8107 3.42479 59.4628 3.42479 59.4628L3.0098 59.7889C3.0098 59.7889 2.68373 59.3146 2.12052 59.3146C1.55731 59.3146 1.34982 59.6703 1.34982 59.9964C1.34982 60.441 1.73517 60.6485 2.35766 60.9153C3.03944 61.2414 3.48408 61.5081 3.48408 62.2492C3.48408 62.9903 2.89123 63.4645 2.09088 63.4645C1.29053 63.4645 0.638397 62.516 0.638397 62.516L1.08303 62.2492C1.08303 62.2492 1.34982 62.9606 2.06124 62.9606C2.77266 62.9606 2.92087 62.7235 2.92087 62.2492C2.92087 61.7749 2.53551 61.5971 2.03159 61.3599H2.09088Z" fill="#E31A41"/>
<path d="M4.87727 60.4113V60.856C4.87727 60.856 5.17369 60.3521 5.88511 60.3521C6.59653 60.3521 7.33759 61.0338 7.33759 61.9231C7.33759 62.8124 6.68546 63.4942 5.88511 63.4942C5.08476 63.4942 5.02548 63.1977 4.93655 63.0495V64.917H4.40298V60.441H4.90691L4.87727 60.4113ZM4.93655 62.4567C4.93655 62.4567 5.23297 62.9606 5.82582 62.9606C6.41867 62.9606 6.80403 62.4863 6.80403 61.8935C6.80403 61.3006 6.41867 60.8263 5.82582 60.8263C5.23297 60.8263 4.93655 61.3303 4.93655 61.3303V62.4567Z" fill="#E31A41"/>
<path d="M11.0133 61.8935C11.0133 62.7828 10.3611 63.4645 9.47186 63.4645C8.58258 63.4645 7.93045 62.7828 7.93045 61.8935C7.93045 61.0042 8.58258 60.3224 9.47186 60.3224C10.3611 60.3224 11.0133 61.0042 11.0133 61.8935ZM10.4797 61.8935C10.4797 61.3006 10.0944 60.8264 9.47186 60.8264C8.84937 60.8264 8.46402 61.3006 8.46402 61.8935C8.46402 62.4863 8.84937 62.9606 9.47186 62.9606C10.0944 62.9606 10.4797 62.4863 10.4797 61.8935Z" fill="#E31A41"/>
<path d="M13.5625 60.4114L13.355 60.9153C13.355 60.9153 13.2364 60.856 12.9993 60.856C12.525 60.856 12.3175 61.3599 12.3175 61.3599V63.4053H11.784V60.4114H12.2879V60.856C12.2879 60.856 12.5547 60.3224 13.1179 60.3224C13.6811 60.3224 13.5625 60.4114 13.5625 60.4114Z" fill="#E31A41"/>
<path d="M14.0368 60.4114H14.6297V59.4924H15.1632V60.4114H16.0821V60.9153H15.1632V62.516C15.1632 62.8124 15.3114 62.9606 15.6079 62.9606C15.9043 62.9606 15.9636 62.842 15.9636 62.842L16.1711 63.2867C15.9043 63.4349 15.7264 63.4645 15.5486 63.4645C15.1336 63.4645 14.6593 63.1977 14.6593 62.516V60.8856H14.0664V60.3817L14.0368 60.4114Z" fill="#E31A41"/>
<path d="M17.1789 60.4114L18.0978 62.4271L19.0167 60.4114H19.5799L18.0978 63.5238L16.6157 60.4114H17.2085H17.1789Z" fill="#E31A41"/>
<path d="M22.811 61.9231C22.811 61.9824 22.811 62.0121 22.811 62.101H20.4099C20.4396 62.5456 20.8842 62.9606 21.4474 62.9606C22.0106 62.9606 22.3367 62.516 22.3367 62.516L22.6924 62.8717C22.6924 62.8717 22.2478 63.4645 21.4474 63.4645C20.6471 63.4645 19.8764 62.7828 19.8764 61.8935C19.8764 61.0042 20.4692 60.3224 21.3585 60.3224C22.2478 60.3224 22.811 60.9449 22.811 61.9231ZM22.2774 61.6267C22.2774 61.3006 21.9513 60.8264 21.3585 60.8264C20.7656 60.8264 20.4396 61.3303 20.4099 61.6267H22.2774Z" fill="#E31A41"/>
<path d="M25.3602 60.4114L25.1527 60.9153C25.1527 60.9153 25.0341 60.856 24.797 60.856C24.3227 60.856 24.1152 61.3599 24.1152 61.3599V63.4053H23.5817V60.4114H24.0856V60.856C24.0856 60.856 24.3524 60.3224 24.9156 60.3224C25.4788 60.3224 25.3602 60.4114 25.3602 60.4114Z" fill="#E31A41"/>
<path d="M28.5616 61.9231C28.5616 61.9824 28.5616 62.0121 28.5616 62.101H26.1606C26.1902 62.5456 26.6349 62.9606 27.1981 62.9606C27.7613 62.9606 28.0873 62.516 28.0873 62.516L28.443 62.8717C28.443 62.8717 27.9984 63.4645 27.1981 63.4645C26.3977 63.4645 25.627 62.7828 25.627 61.8935C25.627 61.0042 26.2199 60.3224 27.1091 60.3224C27.9984 60.3224 28.5616 60.9449 28.5616 61.9231ZM28.0281 61.6267C28.0281 61.3006 27.702 60.8264 27.1091 60.8264C26.5163 60.8264 26.1902 61.3303 26.1606 61.6267H28.0281Z" fill="#E31A41"/>
<path d="M29.6584 59.0775C29.8659 59.0775 30.0141 59.2553 30.0141 59.4332C30.0141 59.611 29.8362 59.7889 29.6584 59.7889C29.4805 59.7889 29.3027 59.611 29.3027 59.4332C29.3027 59.2553 29.4805 59.0775 29.6584 59.0775ZM29.3916 60.4114H29.9252V63.4053H29.3916V60.4114Z" fill="#E31A41"/>
<path d="M33.4823 61.4785V63.4052H32.9487V61.5674C32.9487 61.0635 32.6226 60.8263 32.2373 60.8263C31.8519 60.8263 31.4962 61.3303 31.4962 61.3303V63.3756H30.9626V60.3817H31.4666V60.7967C31.4666 60.7967 31.7333 60.2928 32.3855 60.2928C33.0376 60.2928 33.5119 60.7078 33.5119 61.4488L33.4823 61.4785Z" fill="#E31A41"/>
<path d="M34.7569 59.0775C34.9644 59.0775 35.1126 59.2553 35.1126 59.4332C35.1126 59.611 34.9347 59.7889 34.7569 59.7889C34.579 59.7889 34.4012 59.611 34.4012 59.4332C34.4012 59.2553 34.579 59.0775 34.7569 59.0775ZM34.4901 60.4114H35.0237V63.4053H34.4901V60.4114Z" fill="#E31A41"/>
<path d="M38.2547 63.0199C38.1658 63.1681 37.8397 63.4645 37.3061 63.4645C36.5058 63.4645 35.8537 62.7828 35.8537 61.8935C35.8537 61.0042 36.5058 60.3224 37.3061 60.3224C38.1065 60.3224 38.314 60.8264 38.314 60.8264V60.3817H38.8179V63.3756C38.8179 64.4131 38.1065 64.917 37.2469 64.917C36.3872 64.917 35.9426 64.3538 35.9426 64.3538L36.2687 63.9388C36.2687 63.9388 36.6244 64.4131 37.2469 64.4131C37.8694 64.4131 38.2844 64.0574 38.2844 63.4053V62.9903L38.2547 63.0199ZM38.2547 61.3303C38.2547 61.3303 37.9583 60.8264 37.3654 60.8264C36.7726 60.8264 36.3872 61.3006 36.3872 61.8935C36.3872 62.4863 36.7726 62.9606 37.3654 62.9606C37.9583 62.9606 38.2547 62.4567 38.2547 62.4567V61.3303Z" fill="#E31A41"/>
<path d="M39.7368 62.3381V60.4114H40.2704V62.2492C40.2704 62.7531 40.5965 62.9903 40.9818 62.9903C41.3672 62.9903 41.7229 62.4864 41.7229 62.4864V60.4114H42.2564V63.4053H41.7525V62.9606C41.7525 62.9606 41.4857 63.4942 40.8336 63.4942C40.1815 63.4942 39.7072 63.0792 39.7072 62.3381H39.7368Z" fill="#E31A41"/>
<path d="M45.8135 61.4785V63.4052H45.28V61.5674C45.28 61.0635 44.9539 60.8263 44.5685 60.8263C44.1832 60.8263 43.8275 61.3303 43.8275 61.3303V63.3756H43.2939V60.3817H43.7978V60.7967C43.7978 60.7967 44.0646 60.2928 44.7168 60.2928C45.3689 60.2928 45.8432 60.7078 45.8432 61.4488L45.8135 61.4785Z" fill="#E31A41"/>
<path d="M48.9853 63.0199C48.8963 63.1681 48.5703 63.4645 48.0367 63.4645C47.2364 63.4645 46.5842 62.7828 46.5842 61.8935C46.5842 61.0042 47.2364 60.3224 48.0367 60.3224C48.8371 60.3224 49.0446 60.8264 49.0446 60.8264V60.3817H49.5485V63.3756C49.5485 64.4131 48.8371 64.917 47.9774 64.917C47.1178 64.917 46.6732 64.3538 46.6732 64.3538L46.9992 63.9388C46.9992 63.9388 47.3549 64.4131 47.9774 64.4131C48.5999 64.4131 49.0149 64.0574 49.0149 63.4053V62.9903L48.9853 63.0199ZM48.9853 61.3303C48.9853 61.3303 48.6888 60.8264 48.096 60.8264C47.5031 60.8264 47.1178 61.3006 47.1178 61.8935C47.1178 62.4863 47.5031 62.9606 48.096 62.9606C48.6888 62.9606 48.9853 62.4567 48.9853 62.4567V61.3303Z" fill="#E31A41"/>
<path d="M2.17981 69.3041C1.55731 69.0966 0.816254 68.7409 0.816254 67.9406C0.816254 67.1402 1.34982 66.7252 2.23909 66.7252C3.12837 66.7252 3.63229 67.407 3.63229 67.407L3.12837 67.9109C3.12837 67.9109 2.77266 67.4366 2.23909 67.4366C1.70553 67.4366 1.58696 67.6738 1.58696 67.9406C1.58696 68.2073 1.91302 68.4445 2.50587 68.652C3.15801 68.8891 3.72122 69.1855 3.72122 69.9859C3.72122 70.7862 3.03944 71.2012 2.20945 71.2012C1.37946 71.2012 0.638397 70.312 0.638397 70.312L1.20161 69.8377C1.20161 69.8377 1.55732 70.4898 2.23909 70.4898C2.92087 70.4898 2.98016 70.3416 2.98016 69.9859C2.98016 69.6302 2.71337 69.482 2.17981 69.3041Z" fill="#E31A41"/>
<path d="M7.30796 69.6302C7.30796 70.4898 6.62619 71.1716 5.73691 71.1716C4.84764 71.1716 4.16586 70.4898 4.16586 69.6302C4.16586 68.7705 4.84764 68.0887 5.73691 68.0887C6.62619 68.0887 7.30796 68.7705 7.30796 69.6302ZM6.53726 69.6302C6.53726 69.1855 6.24083 68.8002 5.73691 68.8002C5.23299 68.8002 4.93656 69.1855 4.93656 69.6302C4.93656 70.0748 5.23299 70.4601 5.73691 70.4601C6.24083 70.4601 6.53726 70.0748 6.53726 69.6302Z" fill="#E31A41"/>
<path d="M10.2722 68.1777L8.81972 70.4009H10.2129V71.0826H7.57474L9.02722 68.8594H7.69331V68.1777H10.3018H10.2722Z" fill="#E31A41"/>
<path d="M11.1911 66.7548C11.4579 66.7548 11.6654 66.9623 11.6654 67.2291C11.6654 67.4959 11.4579 67.7034 11.1911 67.7034C10.9243 67.7034 10.7168 67.4959 10.7168 67.2291C10.7168 66.9623 10.9243 66.7548 11.1911 66.7548ZM10.8354 68.1777H11.5765V71.1123H10.8354V68.1777Z" fill="#E31A41"/>
<path d="M14.8964 69.1856V71.0827H14.2147V70.727C14.2147 70.727 13.9182 71.1716 13.2661 71.1716C12.614 71.1716 12.199 70.8159 12.199 70.1934C12.199 69.5709 12.7029 69.2152 13.355 69.2152C14.0072 69.2152 14.1554 69.4227 14.1554 69.4227V69.2448C14.1554 68.8595 13.7997 68.7409 13.5329 68.7409C13.1179 68.7409 12.6436 68.9484 12.6436 68.9484L12.4065 68.3259C12.4065 68.3259 12.94 68.0591 13.5625 68.0591C14.185 68.0591 14.8964 68.4741 14.8964 69.1559V69.1856ZM14.1554 70.223V69.9266C14.1554 69.9266 13.8886 69.7784 13.5032 69.7784C13.1179 69.7784 12.9697 69.8673 12.9697 70.1934C12.9697 70.5195 13.2661 70.5788 13.5032 70.5788C13.9479 70.5788 14.185 70.2527 14.185 70.2527L14.1554 70.223Z" fill="#E31A41"/>
<path d="M15.6968 66.4288H16.4378V71.0826H15.6968V66.4288Z" fill="#E31A41"/>
<path d="M21.6549 69.2152V71.0827H20.9139V69.3931C20.9139 68.9781 20.7656 68.7706 20.3803 68.7706C19.9949 68.7706 19.8171 69.1559 19.8171 69.1559V71.0827H19.076V69.3931C19.076 68.9781 18.9278 68.7706 18.5425 68.7706C18.1571 68.7706 17.9793 69.1559 17.9793 69.1559V71.0827H17.2382V68.1481H17.92V68.5631C17.92 68.5631 18.1867 68.0591 18.7796 68.0591C19.3724 68.0591 19.6985 68.5631 19.6985 68.5631C19.6985 68.5631 19.9357 68.0591 20.6174 68.0591C21.2992 68.0591 21.6549 68.4741 21.6549 69.1856V69.2152Z" fill="#E31A41"/>
<path d="M22.8406 66.7548C23.1074 66.7548 23.3149 66.9623 23.3149 67.2291C23.3149 67.4959 23.1074 67.7034 22.8406 67.7034C22.5738 67.7034 22.3663 67.4959 22.3663 67.2291C22.3663 66.9623 22.5738 66.7548 22.8406 66.7548ZM22.4849 68.1777H23.226V71.1123H22.4849V68.1777Z" fill="#E31A41"/>
<path d="M26.6645 69.2152V71.1123H25.9234V69.393C25.9234 68.978 25.6567 68.8002 25.3306 68.8002C25.0045 68.8002 24.7377 69.1855 24.7377 69.1855V71.1123H23.9967V68.1777H24.6784V68.5927C24.6784 68.5927 24.9452 68.0887 25.5677 68.0887C26.1902 68.0887 26.6349 68.5037 26.6349 69.1855L26.6645 69.2152Z" fill="#E31A41"/>
<path d="M27.8205 66.7548C28.0873 66.7548 28.2948 66.9623 28.2948 67.2291C28.2948 67.4959 28.0873 67.7034 27.8205 67.7034C27.5538 67.7034 27.3463 67.4959 27.3463 67.2291C27.3463 66.9623 27.5538 66.7548 27.8205 66.7548ZM27.4648 68.1777H28.2059V71.1123H27.4648V68.1777Z" fill="#E31A41"/>
<path d="M29.2138 70.1044C29.2138 70.1044 29.5991 70.5194 30.103 70.5194C30.6069 70.5194 30.6662 70.4305 30.6662 70.2527C30.6662 70.0748 30.518 70.0155 30.0734 69.9266C29.4805 69.808 28.9766 69.5709 28.9766 69.0077C28.9766 68.4445 29.4212 68.0887 30.2216 68.0887C31.0219 68.0887 31.3184 68.4445 31.3184 68.4445L30.9627 68.978C30.9627 68.978 30.6366 68.7112 30.2216 68.7112C29.8066 68.7112 29.688 68.8002 29.688 68.978C29.688 69.1559 29.8955 69.1855 30.3698 69.3041C30.9627 69.4227 31.348 69.6302 31.348 70.223C31.348 70.8159 30.8144 71.1123 30.0734 71.1123C29.3323 71.1123 28.7395 70.5787 28.7395 70.5787L29.1545 70.0452L29.2138 70.1044Z" fill="#E31A41"/>
<path d="M31.7333 68.1777H32.2966V67.3181H33.0376V68.1777H33.9269V68.8298H33.0376V70.0155C33.0376 70.3712 33.2155 70.4898 33.423 70.4898C33.6305 70.4898 33.7194 70.3712 33.7194 70.3712L33.9862 70.9641C33.9862 70.9641 33.7194 71.1419 33.2748 71.1419C32.8301 71.1419 32.2669 70.7269 32.2669 70.1045V68.8002H31.7037V68.148L31.7333 68.1777Z" fill="#E31A41"/>
<path d="M37.2172 69.6302C37.2172 69.6894 37.2172 69.808 37.2172 69.8969H35.0237C35.083 70.1637 35.3794 70.4898 35.8537 70.4898C36.3279 70.4898 36.654 70.1934 36.654 70.1934L37.0097 70.7566C37.0097 70.7566 36.5354 71.1716 35.824 71.1716C35.1126 71.1716 34.253 70.4898 34.253 69.6302C34.253 68.7705 34.8755 68.0887 35.7351 68.0887C36.5947 68.0887 37.2172 68.7112 37.2172 69.6005V69.6302ZM36.4761 69.3634C36.4761 69.0966 36.239 68.7705 35.7351 68.7705C35.2312 68.7705 35.0533 69.0966 35.0237 69.3634H36.4761Z" fill="#E31A41"/>
<path d="M39.7961 68.2074L39.5293 68.8595C39.5293 68.8595 39.3811 68.8002 39.1736 68.8002C38.729 68.8002 38.5215 69.1856 38.5215 69.1856V71.0827H37.7804V68.1481H38.4918V68.5631C38.4918 68.5631 38.7586 68.0591 39.2922 68.0591C39.8258 68.0591 39.7961 68.1481 39.7961 68.1481V68.2074Z" fill="#E31A41"/>
<path d="M40.6261 66.7548C40.8929 66.7548 41.1004 66.9623 41.1004 67.2291C41.1004 67.4959 40.8929 67.7034 40.6261 67.7034C40.3593 67.7034 40.1518 67.4959 40.1518 67.2291C40.1518 66.9623 40.3593 66.7548 40.6261 66.7548ZM40.2704 68.1777H41.0115V71.1123H40.2704V68.1777Z" fill="#E31A41"/>
<path d="M41.7822 70.0748V68.1777H42.5232V69.8673C42.5232 70.3119 42.7307 70.4898 43.1161 70.4898C43.5014 70.4898 43.7089 70.1341 43.7089 70.1341V68.1777H44.45V71.1123H43.7682V70.6973C43.7682 70.6973 43.5014 71.2012 42.8789 71.2012C42.2564 71.2012 41.8118 70.7862 41.8118 70.1044L41.7822 70.0748Z" fill="#E31A41"/>
<path d="M49.6078 69.2152V71.0827H48.8667V69.3931C48.8667 68.9781 48.7185 68.7706 48.3331 68.7706C47.9478 68.7706 47.7699 69.1559 47.7699 69.1559V71.0827H47.0289V69.3931C47.0289 68.9781 46.8807 68.7706 46.4953 68.7706C46.11 68.7706 45.9321 69.1559 45.9321 69.1559V71.0827H45.191V68.1481H45.8728V68.5631C45.8728 68.5631 46.1396 68.0591 46.7325 68.0591C47.3253 68.0591 47.6514 68.5631 47.6514 68.5631C47.6514 68.5631 47.8885 68.0591 48.5703 68.0591C49.2521 68.0591 49.6078 68.4741 49.6078 69.1856V69.2152Z" fill="#E31A41"/>
<path d="M47.8885 9.24845L49.6078 0H38.6401L47.8885 9.24845Z" fill="url(#paint0_linear_12731_8405)"/>
<path d="M10.2129 27.3007C1.2609 27.3007 -2.41476 33.6146 1.64625 40.0766L14.0961 52.5265H16.7343C23.2556 51.8743 27.5834 44.1969 23.4335 37.6163L13.1179 27.3007H10.2129Z" fill="url(#paint1_linear_12731_8405)"/>
<path d="M24.2042 35.482V27.3007H16.0229L24.2042 35.482Z" fill="url(#paint2_linear_12731_8405)"/>
<path d="M0.608765 41.9738V52.5561H11.1615L0.608765 41.9738Z" fill="url(#paint3_linear_12731_8405)"/>
<path d="M10.2129 0C1.2609 0 -2.41476 6.31385 1.64625 12.7759L14.0961 25.2258H16.7343C23.2556 24.5736 27.5834 16.8962 23.4335 10.3156L13.1179 0H10.2129Z" fill="url(#paint4_linear_12731_8405)"/>
<path d="M24.2042 8.18133V0H16.0229L24.2042 8.18133Z" fill="url(#paint5_linear_12731_8405)"/>
<path d="M0.608765 14.673V25.2258H11.1615L0.608765 14.673Z" fill="url(#paint6_linear_12731_8405)"/>
<path d="M26.2791 40.462V52.5561H32.9487H38.3436L26.2791 40.462Z" fill="url(#paint7_linear_12731_8405)"/>
<path d="M41.2486 25.2258H44.865L47.4142 11.7088L35.7054 0H26.2791L28.5913 12.5684L41.2486 25.2258Z" fill="url(#paint8_linear_12731_8405)"/>
<path d="M29.273 16.1848L29.362 16.748L30.9627 25.2258H37.899H38.314L29.273 16.1848Z" fill="url(#paint9_linear_12731_8405)"/>
<path d="M49.6078 33.5849V27.3007L46.5842 30.5614L49.6078 33.5849Z" fill="url(#paint10_linear_12731_8405)"/>
<path d="M45.191 32.1028L44.9835 32.3103L37.9583 39.9284L26.2791 27.3007V35.8378V37.5274L41.2782 52.5561H49.6078V39.4245V36.9345V36.5195L45.191 32.1028Z" fill="url(#paint11_linear_12731_8405)"/>
<defs>
<linearGradient id="paint0_linear_12731_8405" x1="44.1239" y1="36.6085" x2="44.1239" y2="12.2127" gradientUnits="userSpaceOnUse">
<stop stop-color="#E31A41"/>
<stop offset="1" stop-color="#EF7C28"/>
</linearGradient>
<linearGradient id="paint1_linear_12731_8405" x1="12.525" y1="36.6085" x2="12.525" y2="12.2127" gradientUnits="userSpaceOnUse">
<stop stop-color="#E31A41"/>
<stop offset="1" stop-color="#EF7C28"/>
</linearGradient>
<linearGradient id="paint2_linear_12731_8405" x1="20.1135" y1="36.6085" x2="20.1135" y2="12.2127" gradientUnits="userSpaceOnUse">
<stop stop-color="#E31A41"/>
<stop offset="1" stop-color="#EF7C28"/>
</linearGradient>
<linearGradient id="paint3_linear_12731_8405" x1="5.88512" y1="36.6085" x2="5.88512" y2="12.2127" gradientUnits="userSpaceOnUse">
<stop stop-color="#E31A41"/>
<stop offset="1" stop-color="#EF7C28"/>
</linearGradient>
<linearGradient id="paint4_linear_12731_8405" x1="12.525" y1="36.6085" x2="12.525" y2="12.2127" gradientUnits="userSpaceOnUse">
<stop stop-color="#E31A41"/>
<stop offset="1" stop-color="#EF7C28"/>
</linearGradient>
<linearGradient id="paint5_linear_12731_8405" x1="20.1135" y1="36.6085" x2="20.1135" y2="12.2127" gradientUnits="userSpaceOnUse">
<stop stop-color="#E31A41"/>
<stop offset="1" stop-color="#EF7C28"/>
</linearGradient>
<linearGradient id="paint6_linear_12731_8405" x1="5.88512" y1="36.6085" x2="5.88512" y2="12.2127" gradientUnits="userSpaceOnUse">
<stop stop-color="#E31A41"/>
<stop offset="1" stop-color="#EF7C28"/>
</linearGradient>
<linearGradient id="paint7_linear_12731_8405" x1="32.2966" y1="36.6085" x2="32.2966" y2="12.2127" gradientUnits="userSpaceOnUse">
<stop stop-color="#E31A41"/>
<stop offset="1" stop-color="#EF7C28"/>
</linearGradient>
<linearGradient id="paint8_linear_12731_8405" x1="36.8319" y1="36.6085" x2="36.8319" y2="12.2127" gradientUnits="userSpaceOnUse">
<stop stop-color="#E31A41"/>
<stop offset="1" stop-color="#EF7C28"/>
</linearGradient>
<linearGradient id="paint9_linear_12731_8405" x1="33.8083" y1="36.6085" x2="33.8083" y2="12.2127" gradientUnits="userSpaceOnUse">
<stop stop-color="#E31A41"/>
<stop offset="1" stop-color="#EF7C28"/>
</linearGradient>
<linearGradient id="paint10_linear_12731_8405" x1="48.096" y1="36.6085" x2="48.096" y2="12.2127" gradientUnits="userSpaceOnUse">
<stop stop-color="#E31A41"/>
<stop offset="1" stop-color="#EF7C28"/>
</linearGradient>
<linearGradient id="paint11_linear_12731_8405" x1="37.9583" y1="36.6085" x2="37.9583" y2="12.2127" gradientUnits="userSpaceOnUse">
<stop stop-color="#E31A41"/>
<stop offset="1" stop-color="#EF7C28"/>
</linearGradient>
</defs>
</svg>
